# xmcd CD database file
#
# Track frame offsets:
#	150
#	15891
#	32756
#	48528
#	65303
#	82972
#	101712
#	116480
#	133519
#	147512
#	166060
#	183195
#	200363
#
# Disc length: 2942 seconds
#
# Revision: 4
# Processed by: cddbd v1.5.2PL0 Copyright (c) Steve Scherf et al.
# Submitted via: CDex 1.50
#
DISCID=a30b7c0d
DTITLE=Natasha Bedingfield - Strip Me
DYEAR=2010
DGENRE=Pop
TTITLE0=Little Too Much
TTITLE1=All I Need (Feat. Kevin Rudolf)
TTITLE2=Strip Me
TTITLE3=Neon Lights
TTITLE4=Weightless
TTITLE5=Can't Fall Down
TTITLE6=Try
TTITLE7=Touch
TTITLE8=Run-Run-Run
TTITLE9=Break Thru
TTITLE10=No Mozart
TTITLE11=Recover
TTITLE12=Weightless (Less Is More Version)
EXTD=YEAR: 2010
EXTT0=
EXTT1=
EXTT2=
EXTT3=
EXTT4=
EXTT5=
EXTT6=
EXTT7=
EXTT8=
EXTT9=
EXTT10=
EXTT11=
EXTT12=
PLAYORDER=
